<?xml version="1.0" encoding="UTF-8" standalone="no"?>
<!-- Created with Inkscape (http://www.inkscape.org/) -->

<svg
   width="4000"
   height="2700"
   viewBox="0 -100 4000 2700"
   version="1.1"
   id="svg1"
   inkscape:version="1.4.2 (f4327f4, 2025-05-13)"
   sodipodi:docname="drawing.svg"
   xmlns:inkscape="http://www.inkscape.org/namespaces/inkscape"
   xmlns:sodipodi="http://sodipodi.sourceforge.net/DTD/sodipodi-0.dtd"
   xmlns="http://www.w3.org/2000/svg"
   xmlns:svg="http://www.w3.org/2000/svg">
  <sodipodi:namedview
     id="namedview1"
     pagecolor="#ffffff"
     bordercolor="#000000"
     borderopacity="0.25"
     inkscape:showpageshadow="2"
     inkscape:pageopacity="0.0"
     inkscape:pagecheckerboard="0"
     inkscape:deskcolor="#d1d1d1"
     inkscape:document-units="px"
     inkscape:zoom="0.23603376"
     inkscape:cx="2071.7376"
     inkscape:cy="1069.7622"
     inkscape:window-width="1920"
     inkscape:window-height="1111"
     inkscape:window-x="-9"
     inkscape:window-y="-9"
     inkscape:window-maximized="1"
     inkscape:current-layer="layer1" />
  <defs
     id="defs1" />
  <g
     inkscape:label="Layer 1"
     inkscape:groupmode="layer"
     id="layer1">
    <circle id="node1" cx="477" cy="84" r="16"/>
   <circle id="node2" cx="1223" cy="42" r="16"/>
   <circle id="node3" cx="1695" cy="52" r="16"/>
   <circle id="node4" cx="1984" cy="31" r="16"/>
   <circle id="node5" cx="3146" cy="63" r="16"/>
   <circle id="node6" cx="3505" cy="61" r="16"/>
   <circle id="node7" cx="3869" cy="76" r="16"/>
   <circle id="node8" cx="334" cy="225" r="16"/>
   <circle id="node9" cx="628" cy="241" r="16"/>
   <circle id="node10" cx="1464" cy="225" r="16"/>

   <circle id="node11" cx="1682" cy="258" r="16"/>
   <circle id="node12" cx="1858" cy="225" r="16"/>
   <circle id="node13" cx="2197" cy="210" r="16"/>
   <circle id="node14" cx="2531" cy="162" r="16"/>
   <circle id="node15" cx="2888" cy="132" r="16"/>
   <circle id="node16" cx="3219" cy="233" r="16"/>
   <circle id="node17" cx="3842" cy="325" r="16"/>
   <circle id="node18" cx="163" cy="342" r="16"/>
   <circle id="node19" cx="434" cy="369" r="16"/>
   <circle id="node20" cx="788" cy="304" r="16"/>

   <circle id="node21" cx="1135" cy="424" r="16"/>
   <circle id="node22" cx="1695" cy="472" r="16"/>
   <circle id="node23" cx="1969" cy="346" r="16"/>
   <circle id="node24" cx="2398" cy="357" r="16"/>
   <circle id="node25" cx="2584" cy="401" r="16"/>
   <circle id="node26" cx="2863" cy="227" r="16"/>
   <circle id="node27" cx="2913" cy="367" r="16"/>
   <circle id="node28" cx="3041" cy="311" r="16"/>
   <circle id="node29" cx="3515" cy="393" r="16"/>
   <circle id="node30" cx="3967" cy="369" r="16"/>

   <circle id="node31" cx="276" cy="451" r="16"/>
   <circle id="node32" cx="663" cy="533" r="16"/>
   <circle id="node33" cx="979" cy="493" r="16"/>
   <circle id="node34" cx="1481" cy="537" r="16"/>
   <circle id="node35" cx="1788" cy="605" r="16"/>
   <circle id="node36" cx="1908" cy="617" r="16"/>
   <circle id="node37" cx="2104" cy="468" r="16"/>
   <circle id="node38" cx="2496" cy="491" r="16"/>
   <circle id="node39" cx="2674" cy="458" r="16"/>
   <circle id="node40" cx="2983" cy="563" r="16"/>

   <circle id="node41" cx="3114" cy="525" r="16"/>
   <circle id="node42" cx="3857" cy="527" r="16"/>
   <circle id="node43" cx="93" cy="581" r="16"/>
   <circle id="node44" cx="497" cy="651" r="16"/>
   <circle id="node45" cx="771" cy="697" r="16"/>
   <circle id="node46" cx="1027" cy="628" r="16"/>
   <circle id="node47" cx="1228" cy="592" r="16"/>
   <circle id="node48" cx="1549" cy="709" r="16"/>
   <circle id="node49" cx="2001" cy="716" r="16"/>
   <circle id="node50" cx="2197" cy="605" r="16"/>

   <circle id="node51" cx="2586" cy="630" r="16"/>
   <circle id="node52" cx="2790" cy="584" r="16"/>
   <circle id="node53" cx="3018" cy="693" r="16"/>
   <circle id="node54" cx="3169" cy="657" r="16"/>
   <circle id="node55" cx="3520" cy="651" r="16"/>
   <circle id="node56" cx="3982" cy="684" r="16"/>
   <circle id="node57" cx="218" cy="712" r="16"/>
   <circle id="node58" cx="610" cy="751" r="16"/>
   <circle id="node59" cx="691" cy="829" r="16"/>
   <circle id="node60" cx="841" cy="806" r="16"/>

   <circle id="node61" cx="1097" cy="840" r="16"/>
   <circle id="node62" cx="1238" cy="800" r="16"/>
   <circle id="node63" cx="1574" cy="947" r="16"/>
   <circle id="node64" cx="1778" cy="915" r="16"/>
   <circle id="node65" cx="1991" cy="873" r="16"/>
   <circle id="node66" cx="2129" cy="846" r="16"/>
   <circle id="node67" cx="2345" cy="819" r="16"/>
   <circle id="node68" cx="2626" cy="766" r="16"/>
   <circle id="node69" cx="2878" cy="754" r="16"/>
   <circle id="node70" cx="3194" cy="800" r="16"/>

   <circle id="node71" cx="3473" cy="798" r="16"/>
   <circle id="node72" cx="3764" cy="817" r="16"/>
   <circle id="node73" cx="213" cy="846" r="16"/>
   <circle id="node74" cx="354" cy="982" r="16"/>
   <circle id="node75" cx="545" cy="936" r="16"/>
   <circle id="node76" cx="793" cy="926" r="16"/>
   <circle id="node77" cx="959" cy="1031" r="16"/>
   <circle id="node78" cx="1155" cy="1010" r="16"/>
   <circle id="node79" cx="1301" cy="982" r="16"/>
   <circle id="node80" cx="1640" cy="1041" r="16"/>

   <circle id="node81" cx="1916" cy="1079" r="16"/>
   <circle id="node82" cx="2016" cy="1020" r="16"/>
   <circle id="node83" cx="2298" cy="987" r="16"/>
   <circle id="node84" cx="2478" cy="911" r="16"/>
   <circle id="node85" cx="2639" cy="865" r="16"/>
   <circle id="node86" cx="2920" cy="953" r="16"/>
   <circle id="node87" cx="3212" cy="1012" r="16"/>
   <circle id="node88" cx="3342" cy="1041" r="16"/>
   <circle id="node89" cx="3450" cy="961" r="16"/>
   <circle id="node90" cx="3656" cy="961" r="16"/>

   <circle id="node91" cx="3940" cy="961" r="16"/>
   <circle id="node92" cx="110" cy="1092" r="16"/>
   <circle id="node93" cx="128" cy="1192" r="16"/>
   <circle id="node94" cx="379" cy="1148" r="16"/>
   <circle id="node95" cx="495" cy="1131" r="16"/>
   <circle id="node96" cx="1085" cy="1205" r="16"/>
   <circle id="node97" cx="1213" cy="1165" r="16"/>
   <circle id="node98" cx="1379" cy="1119" r="16"/>
   <circle id="node99" cx="1539" cy="1138" r="16"/>
   <circle id="node100" cx="1820" cy="1205" r="16"/>
   <circle id="node101" cx="2109" cy="1113" r="16"/>
   <circle id="node102" cx="2456" cy="993" r="16"/>
   <circle id="node103" cx="2684" cy="972" r="16"/>
   <circle id="node104" cx="2920" cy="1068" r="16"/>
   <circle id="node105" cx="3568" cy="1110" r="16"/>
   <circle id="node106" cx="3817" cy="1150" r="16"/>
   <circle id="node107" cx="3995" cy="1150" r="16"/>
   <circle id="node108" cx="3498" cy="1348" r="16"/>
   <circle id="node109" cx="1278" cy="1373" r="16"/>
   <circle id="node110" cx="1466" cy="1215" r="16"/>

   <circle id="node111" cx="1587" cy="1339" r="16"/>
   <circle id="node112" cx="1662" cy="1295" r="16"/>
   <circle id="node113" cx="1936" cy="1295" r="16"/>
   <circle id="node114" cx="2139" cy="1243" r="16"/>
   <circle id="node115" cx="2441" cy="1161" r="16"/>
   <circle id="node116" cx="2925" cy="1308" r="16"/>
   <circle id="node117" cx="3249" cy="1406" r="16"/>
   <circle id="node118" cx="2928" cy="1467" r="16"/>
   <circle id="node119" cx="3912" cy="1526" r="16"/>
   <circle id="node120" cx="105" cy="1623" r="16"/>

   <circle id="node121" cx="241" cy="1625" r="16"/>
   <circle id="node122" cx="444" cy="1616" r="16"/>
   <circle id="node123" cx="939" cy="1606" r="16"/>
   <circle id="node124" cx="1235" cy="1558" r="16"/>
   <circle id="node125" cx="1745" cy="1406" r="16"/>
   <circle id="node126" cx="2285" cy="1335" r="16"/>
   <circle id="node127" cx="2649" cy="1408" r="16"/>
   <circle id="node128" cx="3121" cy="1877" r="16"/>
   <circle id="node129" cx="3222" cy="1499" r="16"/>
   <circle id="node130" cx="1677" cy="1568" r="16"/>

   <circle id="node131" cx="1818" cy="1484" r="16"/>
   <circle id="node132" cx="2137" cy="1467" r="16"/>
   <circle id="node133" cx="2498" cy="1608" r="16"/>
   <circle id="node134" cx="2755" cy="1534" r="16"/>
   <circle id="node135" cx="3350" cy="1583" r="16"/>
   <circle id="node136" cx="3822" cy="1740" r="16"/>
   <circle id="node137" cx="776" cy="1751" r="16"/>
   <circle id="node138" cx="1326" cy="1652" r="16"/>
   <circle id="node139" cx="1650" cy="1667" r="16"/>
   <circle id="node140" cx="2132" cy="1635" r="16"/>

   <circle id="node141" cx="2594" cy="1660" r="16"/>
   <circle id="node142" cx="2925" cy="1709" r="16"/>
   <circle id="node143" cx="3224" cy="1681" r="16"/>
   <circle id="node144" cx="138" cy="1914" r="16"/>
   <circle id="node145" cx="289" cy="1904" r="16"/>
   <circle id="node146" cx="487" cy="1893" r="16"/>
   <circle id="node147" cx="633" cy="1860" r="16"/>
   <circle id="node148" cx="831" cy="1835" r="16"/>
   <circle id="node149" cx="1002" cy="1818" r="16"/>
   <circle id="node150" cx="1200" cy="1765" r="16"/>

   <circle id="node151" cx="1293" cy="1845" r="16"/>
   <circle id="node152" cx="1429" cy="1757" r="16"/>
   <circle id="node153" cx="1507" cy="1856" r="16"/>
   <circle id="node154" cx="1841" cy="1791" r="16"/>
   <circle id="node155" cx="1956" cy="1908" r="16"/>
   <circle id="node156" cx="2192" cy="1908" r="16"/>
   <circle id="node157" cx="2383" cy="1925" r="16"/>
   <circle id="node158" cx="2704" cy="1816" r="16"/>
   <circle id="node159" cx="2719" cy="2185" r="16"/>
   <circle id="node160" cx="3362" cy="1916" r="16"/>

   <circle id="node161" cx="3628" cy="1891" r="16"/>
   <circle id="node162" cx="4000" cy="1887" r="16"/>
   <circle id="node163" cx="460" cy="1982" r="16"/>
   <circle id="node164" cx="663" cy="1982" r="16"/>
   <circle id="node165" cx="1047" cy="2040" r="16"/>
   <circle id="node166" cx="1446" cy="1961" r="16"/>
   <circle id="node167" cx="1758" cy="2015" r="16"/>
   <circle id="node168" cx="1873" cy="2078" r="16"/>
   <circle id="node169" cx="2192" cy="2045" r="16"/>
   <circle id="node170" cx="2353" cy="2063" r="16"/>

   <circle id="node171" cx="3556" cy="2435" r="16"/>
   <circle id="node172" cx="3013" cy="2049" r="16"/>
   <circle id="node173" cx="3433" cy="2156" r="16"/>
   <circle id="node174" cx="3784" cy="2078" r="16"/>
   <circle id="node175" cx="3977" cy="2189" r="16"/>
   <circle id="node176" cx="83" cy="2158" r="16"/>
   <circle id="node177" cx="254" cy="2118" r="16"/>
   <circle id="node178" cx="547" cy="2097" r="16"/>
   <circle id="node179" cx="899" cy="2133" r="16"/>
   <circle id="node180" cx="1120" cy="2166" r="16"/>

   <circle id="node181" cx="1338" cy="2120" r="16"/>
   <circle id="node182" cx="1456" cy="2147" r="16"/>
   <circle id="node183" cx="1672" cy="2063" r="16"/>
   <circle id="node184" cx="2026" cy="2185" r="16"/>
   <circle id="node185" cx="2288" cy="2326" r="16"/>
   <circle id="node186" cx="2544" cy="2284" r="16"/>
   <circle id="node187" cx="2918" cy="2210" r="16"/>
   <circle id="node188" cx="3282" cy="2219" r="16"/>
   <circle id="node189" cx="254" cy="2357" r="16"/>
   <circle id="node190" cx="442" cy="2439" r="16"/>

   <circle id="node191" cx="670" cy="2280" r="16"/>
   <circle id="node192" cx="726" cy="2490" r="16"/>
   <circle id="node193" cx="1278" cy="2294" r="16"/>
   <circle id="node194" cx="1341" cy="2368" r="16"/>
   <circle id="node195" cx="1507" cy="2361" r="16"/>
   <circle id="node196" cx="1758" cy="2242" r="16"/>
   <circle id="node197" cx="1790" cy="2380" r="16"/>
   <circle id="node198" cx="2694" cy="2500" r="16"/>
   <circle id="node199" cx="3320" cy="2490" r="16"/>
  </g>
</svg>
