<?xml version="1.0" encoding="UTF-8" standalone="no"?>
<!-- Created with Inkscape (http://www.inkscape.org/) -->

<svg
   width="2570"
   height="1926"
   viewBox="-50 -50 2700 1950"
   version="1.1"
   id="svg1"
   inkscape:version="1.4.2 (f4327f4, 2025-05-13)"
   sodipodi:docname="Model-Map.svg"
   xmlns:inkscape="http://www.inkscape.org/namespaces/inkscape"
   xmlns:sodipodi="http://sodipodi.sourceforge.net/DTD/sodipodi-0.dtd"
   xmlns="http://www.w3.org/2000/svg"
   xmlns:svg="http://www.w3.org/2000/svg">
  <sodipodi:namedview
     id="namedview1"
     pagecolor="#ffffff"
     bordercolor="#000000"
     borderopacity="0.25"
     inkscape:showpageshadow="2"
     inkscape:pageopacity="0.0"
     inkscape:pagecheckerboard="0"
     inkscape:deskcolor="#d1d1d1"
     inkscape:document-units="px"
     inkscape:zoom="0.53606888"
     inkscape:cx="851.56967"
     inkscape:cy="308.72898"
     inkscape:window-width="1304"
     inkscape:window-height="1101"
     inkscape:window-x="-9"
     inkscape:window-y="0"
     inkscape:window-maximized="0"
     inkscape:current-layer="background-layer"
     showguides="false" />
  <defs
     id="defs1">
    <inkscape:path-effect
       effect="spiro"
       id="path-effect50"
       is_visible="true"
       lpeversion="1" />
    <inkscape:path-effect
       effect="spiro"
       id="path-effect48"
       is_visible="true"
       lpeversion="1" />
    <inkscape:path-effect
       effect="spiro"
       id="path-effect47"
       is_visible="true"
       lpeversion="1" />
  </defs>
  <g
     id="background-layer"
     inkscape:label="Layer 0"
     inkscape:groupmode="layer">
    <rect
       x="-50"
       y="-100"
       width="2750"
       height="2000"
       fill="#03002e"
       id="rect1" />
    <path
       style="display:none;fill:none;stroke:#ffffff;stroke-width:52;stroke-dasharray:none;stroke-opacity:1"
       d="M 304.0654,-29.846911 V 64.357401 L 215.45739,172.55245"
       id="path34" />
    <path
       style="display:none;fill:none;stroke:#ffffff;stroke-width:52;stroke-dasharray:none;stroke-opacity:1"
       d="M 304.99812,65.290117 402.00058,181.87961"
       id="path35" />
    <path
       style="display:none;fill:none;stroke:#ffffff;stroke-width:52;stroke-dasharray:none;stroke-opacity:1"
       d="m 103.53147,261.16047 111.92592,-88.60802 62.49197,110.06049"
       id="path36" />
    <path
       style="display:none;fill:none;stroke:#ffffff;stroke-width:52;stroke-dasharray:none;stroke-opacity:1"
       d="m 280.7475,284.47837 122.1858,-98.86789 103.53147,47.56851"
       id="path37" />
    <path
       style="display:none;fill:none;stroke:#ffffff;stroke-width:52;stroke-dasharray:none;stroke-opacity:1"
       d="M 102.59876,265.82405 -19.587035,268.6222"
       id="path38" />
    <path
       style="display:none;fill:none;stroke:#ffffff;stroke-width:52;stroke-dasharray:none;stroke-opacity:1"
       d="M 507.39748,233.17899 784.41412,30.779627 943.90855,172.55245 731.24931,330.18145 Z"
       id="path39" />
    <path
       style="display:none;fill:none;stroke:#ffffff;stroke-width:52;stroke-dasharray:none;stroke-opacity:1"
       d="m 940.17769,179.08146 c 15.54526,-18.65431 30.99458,-37.38901 46.6358,-55.96295 10.06412,-11.95115 19.35901,-20.58191 31.71231,-29.846914 2.1105,-1.582871 3.2367,-4.416493 5.5963,-5.596296 4.7974,-2.398697 8.3638,-3.941041 13.058,-7.461727 2.1939,-1.645408 4.8357,-6.148692 7.4618,-7.461728 1.7666,-0.883329 10.8838,-3.113392 11.1926,-3.730864 0.5561,-1.112329 -0.5562,-2.618535 0,-3.730864 0.278,-0.556164 1.3322,0.319919 1.8654,0 4.0509,-2.430526 8.7084,-7.152332 13.058,-9.327159 1.5532,-0.776569 6.2785,1.183266 7.4618,0 0.9831,-0.983169 0.8822,-2.747695 1.8654,-3.730864 0.4397,-0.439687 1.348,0.344918 1.8654,0 3.5353,-2.356857 6.3436,-7.461728 9.3272,-7.461728 l 171.6197,-26.116047"
       id="path40" />
    <path
       style="display:none;fill:none;stroke:#ffffff;stroke-width:52;stroke-dasharray:none;stroke-opacity:1"
       d="m 1277.8209,20.519751 c 5.2565,15.428641 2.9068,24.639747 0,39.17407 -0.122,0.609736 0,1.243622 0,1.865432 0,2.487243 0.6032,5.048748 0,7.461728 -0.6745,2.697793 -2.9669,4.787901 -3.7309,7.461728 -1.0363,3.627229 0.6909,5.872656 0,9.327159 -6.6139,33.069262 -3.7309,68.555472 -3.7309,102.598752 0,7.66254 -1.8718,41.02676 0,44.77037 2.5708,5.14151 0.5973,8.65633 1.8655,11.19259 1.859,3.71815 2.6614,3.98006 3.7308,9.32716 0.01,0.0438 0.3989,9.12774 0,9.32716 -1.1123,0.55617 -2.6185,-0.55616 -3.7308,0 -0.5562,0.27808 0.4397,1.42575 0,1.86543 -2.0976,2.09756 -6.8359,3.93546 -9.3272,5.5963 -1.197,0.79802 -5.6286,7.42943 -7.4617,5.59629 -2.9784,-2.97843 27.6043,-37.42762 31.7123,-42.90493 1.6685,-2.22466 1.8997,-5.36895 3.7309,-7.46173 13.4493,-15.37058 5.2967,0.39948 16.7889,-14.92345 4.2121,-5.61621 8.0448,-17.08045 14.9234,-20.51975 1.1124,-0.55617 2.736,0.74617 3.7309,0 1.7936,-1.34519 2.3857,-3.80272 3.7309,-5.5963 2.9696,-3.95953 12.134,-7.77555 16.7888,-9.32716 8.5651,-2.855 19.1712,1.07133 27.9815,-1.86543 5.6169,-1.87229 7.5395,-4.70243 13.058,-7.46173 4.6412,-2.32055 12.4597,0.2992 16.7889,-1.86543 2.1355,-1.06775 1.106,-2.74039 3.7309,-1.86543 7.4855,2.49515 0.1009,1.92597 9.3272,7.46172 1.0664,0.63984 2.6644,-0.63983 3.7308,0 2.2622,1.35731 3.2367,4.4165 5.5963,5.5963 2.8359,1.41795 6.3833,0.68789 9.3272,1.86543 6.7353,2.69411 9.1018,6.09291 14.9234,9.32716 12.2586,6.81034 20.5824,13.48121 31.7124,22.38519 14.8817,11.90534 27.1911,20.26687 37.3086,35.4432 0.9756,1.46337 2.9443,2.1578 3.7309,3.73087 0.5977,2.39074 2.3928,10.38185 3.7308,13.05802 2.8822,5.76427 8.2818,10.96728 11.1926,16.78889 0.5575,1.11484 -1.228,3.73086 1.8655,3.73086 1.2026,0 10.4817,-35.85651 11.1926,-39.17407 4.4969,-20.98593 8.4054,-42.48827 13.058,-63.42469 0.3016,-1.3573 1.693,-2.35119 1.8654,-3.73086 1.2151,-9.72087 0.2462,-20.13144 1.8654,-29.84691 0.7443,-4.46526 1.7064,-9.00909 3.7309,-13.05802 0.7865,-1.57307 2.826,-2.22276 3.7309,-3.73087 3.1376,-5.22936 6.1272,-18.20947 13.058,-20.51975 1.1798,-0.39327 2.5244,0.30162 3.7309,0 5.1704,-1.2926 9.0296,-3.0442 14.9234,-1.86543 5.3691,1.07381 9.1531,5.24817 11.1926,9.32716 1.2492,2.49847 4.4502,2.5848 5.5963,3.73086 0.579,0.57899 0,23.00683 0,24.25062 0,19.09045 -1.1909,38.77438 0,57.82839 1.7927,28.68323 6.4765,57.51307 11.1926,85.80987 0.1022,0.61335 0,1.24362 0,1.86543 1.2436,3.10905 3.0742,6.04363 3.7309,9.32716 0.6097,3.04867 -0.9832,6.37765 0,9.32716 0.7563,2.26891 17.2973,20.01128 20.5197,16.78888 0.8794,-0.87937 -0.3933,-2.55106 0,-3.73086 1.0589,-3.17672 2.2334,-6.33212 3.7309,-9.32716 2.1719,-4.34378 6.7532,-7.07429 9.3271,-11.19259 1.0422,-1.66745 0.4751,-4.20589 1.8655,-5.5963 6.0965,-6.0965 18.7016,-13.35829 26.116,-18.65432 21.6507,-15.46477 45.3173,-28.88218 65.2901,-46.63579 44.609,-39.65246 -10.3685,8.5031 16.7889,-18.65432 5.0325,-5.03252 10.0519,-8.18645 14.9235,-13.05803 0.4397,-0.43968 0,-1.24362 0,-1.86543 1.2436,-1.24362 2.1578,-2.94433 3.7308,-3.73086 1.1124,-0.55617 2.6186,0.55616 3.7309,0 4.3438,-2.17189 7.0282,-6.82851 11.1926,-9.32716 33.7766,-20.26598 -2.5817,2.22358 16.7889,-7.46173 1.573,-0.78653 2.1578,-2.94433 3.7308,-3.73086 1.1124,-0.55617 2.8515,0.87937 3.7309,0 1.7124,-1.71242 0,-12.39664 0,-14.92346 0,-20.91124 -2.3176,-41.77442 5.5963,-61.559252 0.7303,-1.825699 0.475,-4.205885 1.8654,-5.596296 0.8794,-0.879373 2.4873,0 3.7309,0 3.1091,0 6.2229,0.172459 9.3272,0 8.0949,-0.449718 16.3231,-0.166692 24.2506,-1.865432 18.2908,-3.919464 36.2547,-9.306288 54.0975,-14.923455 15.7594,-4.961299 31.2956,-10.652801 46.6358,-16.788887 9.5566,-3.822649 18.7753,-8.454945 27.9815,-13.058024 2.0053,-1.002639 3.4694,-3.02189 5.5963,-3.730864 1.7697,-0.589901 3.7671,0.365842 5.5963,0 4.2462,-0.849247 7.9867,-8.131923 13.058,-5.596295 2.2246,1.112328 0.2747,4.989697 0,7.461727 -4.9217,44.295627 1.7577,-18.701655 -5.5963,20.519751 -2.1893,11.676203 -2.9898,23.586666 -3.7309,35.443207 -0.8062,12.89915 -1.3003,30.24181 1.8655,42.90493 2.0131,8.05249 5.7105,11.64946 7.4617,18.65432 0.3016,1.20649 -0.3933,2.55106 0,3.73087 1.0505,3.15165 14.1049,5.44872 16.7889,7.46172 4.3074,3.23055 7.2941,7.46173 13.058,7.46173 0.6218,0 -1.3093,-0.27808 -1.8654,0 -10.252,5.126 -0.7224,3.58871 -14.9235,7.46173 -3.649,0.9952 -7.5698,0.77859 -11.1926,1.86543 -3.9784,1.19354 -13.8471,7.72257 -16.7889,9.32716 -16.9596,9.25072 -5.0944,2.31563 -20.5197,9.32716 -6.3289,2.87678 -12.059,7.12873 -18.6543,9.32716 -1.1798,0.39327 -2.6186,-0.55616 -3.7309,0 -2.7808,1.39041 -4.7957,3.9967 -7.4617,5.5963 -3.5413,2.12475 -7.4659,-1.86133 -11.1926,1.86543 -2.1985,2.19843 -3.3979,5.26329 -5.5963,7.46173 -9.9333,9.93324 -21.4011,16.72036 -29.8469,27.98148 -2.5384,3.38451 -7.7238,8.88007 -11.1926,11.19259 -1.204,0.80263 -6.6539,2.92297 -7.4617,3.73086 -0.4397,0.43969 0.278,1.30927 0,1.86543 -2.0359,4.07175 -24.0855,17.63089 -26.1161,14.92346 -8.4422,-11.25632 -7.0058,-27.88529 -9.3272,-41.0395 -1.9925,-11.29116 -5.0593,-22.36667 -7.4617,-33.57778 -0.6218,-3.10905 -1.2436,-6.21811 -1.8654,-9.32716 -0.6218,-1.86543 -1.4389,-3.67678 -1.8654,-5.59629 -1.4319,-6.44336 -1.0191,-16.05771 -3.7309,-22.38519 -2.111,-4.9256 -3.989,-6.37077 -5.5963,-11.19259 -0.6218,-1.86543 -3.2558,-6.98671 -1.8654,-5.59629 0.9831,0.98316 1.2436,2.48724 1.8654,3.73086 3.1091,3.10905 5.8938,6.58046 9.3272,9.32716 12.0793,9.66351 26.4345,17.29637 39.174,26.11605 8.9634,6.20542 17.1354,14.53261 26.1161,20.51975 1.6177,1.07851 6.25,2.51911 7.4617,3.73086 0.9832,0.98317 0.7085,2.9596 1.8654,3.73086 1.0348,0.68984 2.5511,-0.39326 3.7309,0 2.5227,0.84092 5.008,2.50398 7.4617,3.73087 2.2109,1.10542 27.6699,-14.61184 29.8469,-16.78889 1.7902,-1.79017 19.9159,-14.72216 20.5198,-14.92345 6.6192,-2.20639 0.9438,3.02298 7.4617,-1.86544 1.407,-1.05524 2.2675,-2.75528 3.7309,-3.73086 2.8646,-1.90977 9.8831,-0.27798 13.058,-1.86543 0.7865,-0.39327 1.0123,-1.65215 1.8654,-1.86543 4.523,-1.13075 10.4487,-0.37386 14.9235,-1.86544 1.6685,-0.55616 2.0624,-3.1747 3.7309,-3.73086 0.8538,-0.2846 12.9649,-1.77235 13.058,-1.86543 0.4397,-0.43969 -0.4397,-1.42575 0,-1.86543 2.439,-2.43906 8.2814,-4.14071 11.1926,-5.5963 1.4923,-0.74617 4.1039,0.74617 5.5963,0 6.6677,-3.33386 9.518,-10.29021 14.9234,-14.92345 1.493,-1.27968 3.9374,-0.80976 5.5963,-1.86544 5.246,-3.33835 10.0679,-7.30817 14.9235,-11.19259 6.1761,-4.94093 11.3771,-5.71929 16.7889,-9.32716 0.5173,-0.34492 -0.4975,-1.49234 0,-1.86543 2.2246,-1.66849 5.1479,-2.18834 7.4617,-3.73086 3.8035,-2.53565 7.0542,-7.25799 11.1926,-9.32716 3.5673,-1.78367 7.7006,-2.97734 11.1926,-5.5963 1.407,-1.05525 2.1578,-2.94433 3.7308,-3.73086 1.1124,-0.55617 2.6961,0.68983 3.7309,0 1.1569,-0.77126 0.7973,-2.84075 1.8654,-3.73087 2.5421,-5.38542 9.1434,-4.33 13.0581,-7.46172 2.06,-1.64802 3.5138,-3.976652 5.5962,-5.5963 5.3092,-4.12931 10.7731,-8.184673 16.7889,-11.192592 1.7588,-0.879373 4.0609,-0.63707 5.5963,-1.865432 1.7507,-1.400547 2.1456,-4.010983 3.7309,-5.596295 2.7037,-2.703753 6.505,-4.639598 9.3272,-7.461728 2.2831,-2.283111 4.866,-2.433013 7.4617,-3.730864 2.857,-1.428527 1.4588,-3.324231 3.7308,-5.596296 4.7114,-4.711369 10.0637,-4.381337 14.9235,-5.596295 0.1112,-0.02781 4.5866,-3.884849 5.5963,-1.865432 2.9099,5.819828 0,19.231381 0,26.116047 0,22.385187 0,44.770367 0,67.155547 0,17.4107 0,34.8214 0,52.2321 0,7.09717 -0.8623,17.35212 0,24.25061 0.1725,1.37967 1.6688,2.35443 1.8654,3.73086 1.3985,9.78897 1.3129,20.17482 3.7309,29.84692 2.1435,8.57405 1.8654,0.42323 1.8654,5.59629 0,5.49288 0.76,7.53088 1.8655,13.05802 0.9061,4.53073 -2.0422,12.70453 0,16.78889 0.3935,0.78703 12.4955,0.0703 13.058,0 36.5663,-4.57079 73.2116,-11.11861 110.0605,-13.05802 15.9941,-0.8418 30.8617,-0.35071 46.6358,-3.73087 28.5099,-6.10927 -4.0004,-3.62722 42.9049,-11.19259 9.2286,-1.48848 18.748,-0.40751 27.9815,-1.86543 2.7468,-0.4337 4.7471,-3.12762 7.4617,-3.73086 3.035,-0.67445 6.2494,0.43968 9.3272,0 1.3764,-0.19664 2.3544,-1.6688 3.7308,-1.86543 10.564,-1.50915 22.8499,0 33.5778,0 20.5198,0 41.0395,0 61.5593,0 1.9227,0 14.9234,-1.63265 14.9234,1.86543 0,3.47907 -7.738,1.54759 -9.3272,1.86543 -12.2417,2.44835 -24.7021,1.86543 -37.3086,1.86543 -22.5947,0 -45.5282,1.67598 -67.1555,-3.73086 -6.1068,-1.5267 -37.0343,2.13977 -39.1741,0 -0.7817,-0.7817 -1.3002,-4.46573 -1.8654,-5.5963 -0.7866,-1.57307 -3.1747,-2.06237 -3.7309,-3.73086 -0.3933,-1.17981 0.2044,-2.50417 0,-3.73087 -0.7442,-4.46525 -3.231,-8.55886 -3.7309,-13.05802 -1.953,-17.57705 -0.074,-36.63844 1.8655,-54.09753 1.8735,-16.86171 0,-35.17622 0,-52.23209 0,-5.50459 0.1666,-11.69245 1.8654,-16.78889 1.7587,-5.27623 5.703,-9.64721 7.4617,-14.923452 1.266,-3.797831 -1.7718,-9.514384 0,-13.058023 1.0027,-2.00528 2.7282,-3.591017 3.7309,-5.596296 2.7473,-5.494667 1.8654,-10.836263 1.8654,-16.788888 0,-1.865431 -1.6685,-6.430542 0,-5.596295 9.2062,4.603079 9.5717,18.297115 13.058,27.981479 23.0325,63.979145 -2.8368,-6.644967 11.1926,35.443205 1.6801,5.04012 4.4017,9.74676 5.5963,14.92346 0.6991,3.02943 -0.4727,6.25426 0,9.32716 2.7915,18.14438 3.5615,10.51483 7.4618,26.11604 8.0338,32.13524 -6.8759,-15.67118 5.5963,27.98148 2.8838,10.09352 6.935,19.4812 9.3271,29.84691 2.9491,12.77946 5.3501,23.75823 11.1926,35.44321 0.5451,1.09021 8.5722,11.90353 9.3272,14.92345 0.4524,1.80974 -0.5899,3.8266 0,5.5963 0.1966,0.5899 1.4257,-0.43969 1.8654,0 1.9252,1.92516 2.7106,5.42127 3.7309,7.46173 0.6531,1.30634 5.4139,2.04778 3.7308,3.73086 -0.6906,0.69059 -12.9842,-8.68074 -14.9234,-9.32716 -1.1798,-0.39327 -2.4873,0 -3.7309,0 -2.4872,-1.86543 -4.6041,-4.37158 -7.4617,-5.59629 -1.7146,-0.73483 -3.8497,0.65499 -5.5963,0 -32.4661,-12.17477 -1.3343,-1.54673 -11.1926,-7.46173 -5.3229,-3.19375 -11.56,-4.47378 -16.7889,-7.46173 -2.6994,-1.54252 -4.6041,-4.37158 -7.4617,-5.59629 -1.7146,-0.73483 -3.7866,0.45243 -5.5963,0 -0.8531,-0.21328 -1.0789,-1.47217 -1.8655,-1.86544 -4.5398,-2.26992 -10.1672,-2.14545 -14.9234,-3.73086 -5.5284,-1.8428 -9.3194,-5.5963 -14.9235,-5.5963"
       id="path41" />
    <path
       style="display:none;fill:none;stroke:#ffffff;stroke-width:52;stroke-dasharray:none;stroke-opacity:1"
       d="m 951.37028,184.67776 c 6.83992,1.24362 13.88753,1.64645 20.51975,3.73086 22.14803,6.96081 42.85787,18.26869 65.29007,24.25062 6.1925,1.65132 15.8167,0 22.3852,0 1.7691,0 10.0661,1.12652 11.1926,0 0.9832,-0.98317 0.8823,-2.7477 1.8655,-3.73086 12.4362,-12.43622 -4.3527,9.32715 5.5963,-5.5963 2.034,-3.05111 3.7308,-0.30408 3.7308,-3.73086"
       id="path42" />
    <path
       style="display:none;fill:none;stroke:#ffffff;stroke-width:52;stroke-dasharray:none;stroke-opacity:1"
       d="m 1091.2777,363.75922 c 0.9593,-18.99601 0.4601,-37.35838 -1.8655,-55.96295 -1.6032,-12.82556 1.8279,-26.3789 0,-39.17407 -0.278,-1.94658 -1.5421,-3.65672 -1.8654,-5.5963 -1.1092,-6.65505 1.1092,-13.8647 0,-20.51975 -3.7203,-22.32215 0.5105,-0.84439 -3.7309,-9.32716 -1.9936,-3.98734 0,-13.83426 0,-18.65432"
       id="path43" />
    <path
       style="display:none;fill:none;stroke:#ffffff;stroke-width:52;stroke-dasharray:none;stroke-opacity:1"
       d="m 1093.1431,37.308638 -14.9234,152.965422 111.9259,-14.92346 c 10.5504,11.13493 23.4951,25.33729 27.9814,41.0395 0.5125,1.79366 -0.3066,3.75625 0,5.5963 1.576,9.45603 1.9131,1.98449 5.5963,11.19259 1.0049,2.51218 0.5832,6.76271 1.8655,9.32716 2.7089,5.41781 7.2867,7.28673 11.1926,11.19259 0.9831,0.98317 0.8822,2.7477 1.8654,3.73087 2.3589,2.35894 6.7852,2.45986 9.3272,3.73086 5.0721,2.53608 1.8415,3.73086 9.3271,3.73086 l 367.4901,-139.90739"
       id="path44" />
    <path
       style="fill:none;stroke:#ffff00;stroke-width:4;stroke-dasharray:none;stroke-opacity:1"
       d="m 220.28295,171.47774 -117.3963,94.97229"
       id="path47"
       inkscape:path-effect="#path-effect47"
       inkscape:original-d="m 220.28295,171.47774 c -40.01148,33.41618 -78.70389,64.19424 -117.3963,94.97229" />
    <path
       style="fill:none;stroke:#ffff00;stroke-width:4;stroke-dasharray:none;stroke-opacity:1"
       d="m 943.90855,167.88887 138.04195,33.57778"
       id="path48"
       inkscape:path-effect="#path-effect48"
       inkscape:original-d="m 943.90855,167.88887 c 44.77037,12.43622 91.40615,23.007 138.04195,33.57778" />
    <path
       style="fill:none;stroke:#ffff00;stroke-width:4;stroke-dasharray:none;stroke-opacity:1"
       d="m 1089.4122,44.770366 c -3.109,50.366662 -6.2181,100.733324 -9.3271,151.099984 9.3271,167.88887 9.3271,167.88887 9.3271,167.88887"
       id="path49" />
    <path
       style="fill:none;stroke:#ffff00;stroke-width:4;stroke-dasharray:none;stroke-opacity:1"
       d="m 1091.2777,31.712343 c 13.2265,10.851443 27.6418,20.252775 42.9049,27.981478 12.6554,6.40826 25.96,11.688083 39.844,14.596406 13.884,2.908323 28.3858,3.397067 42.235,0.32705 26.432,-5.859332 49.47,-25.297591 59.6938,-50.366662"
       id="path50"
       inkscape:path-effect="#path-effect50"
       inkscape:original-d="m 1091.2777,31.712343 c 14.3016,9.327159 28.6033,18.654319 42.9049,27.981478 14.3017,9.32716 54.7193,9.948971 82.079,14.923456 27.3597,4.974485 39.7959,-33.577775 59.6938,-50.366662" />
    <path
       style="fill:none;stroke:#ffff00;stroke-width:4;stroke-dasharray:none;stroke-opacity:1"
       d="m 1091.2777,44.770366 104.4642,123.118504 76.4827,104.46419"
       id="path51" />
    <path
       style="fill:none;stroke:#ffff00;stroke-width:4;stroke-dasharray:none;stroke-opacity:1"
       d="m 1281.5517,24.250615 124.984,138.041965 136.1765,113.79134"
       id="path52" />
    <path
       style="fill:none;stroke:#ffff00;stroke-width:4;stroke-dasharray:none;stroke-opacity:1"
       d="m 1856.1048,98.867892 -13.0581,76.482708 27.9815,111.92592 78.3482,-50.36667 121.253,-55.96295 -52.2321,-126.849374 -164.158,50.366664 -227.5827,26.11604 35.4432,182.81233"
       id="path53" />
    <path
       style="fill:none;stroke:#ffff00;stroke-width:4;stroke-dasharray:none;stroke-opacity:1"
       d="M 2063.1677,180.9469 2257.1726,304.0654 2466.101,251.83331 2486.6208,57.82839 2242.2492,44.770366 2253.4418,304.0654"
       id="path54" />
    <path
       style="fill:none;stroke:#ffff00;stroke-width:4;stroke-dasharray:none;stroke-opacity:1"
       d="M 1958.7035,236.90985 1857.9702,100.73332"
       id="path55" />
    <path
       style="fill:none;stroke:#009696;stroke-width:4;stroke-dasharray:none;stroke-opacity:1"
       d="m 1083.8159,367.49009 -13.058,-167.88887 13.058,-160.42715"
       id="path56" />
    <path
       style="fill:none;stroke:#009696;stroke-width:4;stroke-dasharray:none;stroke-opacity:1"
       d="m 1091.2777,367.49009 167.8888,-89.54073 149.2346,-111.92592 218.2555,-41.0395 -7.4617,7.46173 7.4617,-20.51975 14.9235,9.32715 210.7938,-20.51975 216.3901,82.07901 c 1.8654,18.65432 1.8654,18.65432 1.8654,18.65432 L 2245.98,311.52713 v 0"
       id="path57" />
    <path
       style="fill:none;stroke:#ff0000;stroke-width:4;stroke-dasharray:none;stroke-opacity:1"
       d="m 282.27875,298.10746 121.35348,-102.88664 97.6104,44.84802 232.15449,97.61041 211.04953,-155.64903 134.54405,26.38119 h 15.8287 l 2.6382,150.37279 163.5633,-92.33417 147.7347,-110.801"
       id="path58" />
  </g>
  <g
     inkscape:groupmode="layer"
     id="layer3"
     inkscape:label="Layer 1">
    <path
       style="fill:none;stroke:#ffff00;stroke-width:4;stroke-dasharray:none;stroke-opacity:1"
       d="m 327.3833,77.415425 c 64.3574,84.877155 64.3574,84.877155 64.3574,84.877155"
       id="path45" />
    <path
       style="fill:none;stroke:#ffff00;stroke-width:4;stroke-dasharray:none;stroke-opacity:1"
       d="m 293.80553,84.877152 -62.49197,73.684558 -13.99074,13.99074 61.55925,110.9932 120.32036,-95.13703 105.39691,42.90494 223.85183,95.13703 L 942.04312,173.48517 787.21227,32.645059 c 0,0 -143.01645,49.12304 -214.52467,73.684561 -71.50822,24.56152 -44.77037,83.32263 -67.15555,124.98394"
       id="path46" />
  </g>
  <g
     inkscape:label="Layer 2"
     inkscape:groupmode="layer"
     id="layer2">
    <g
       id="1">
      <circle
         cx="306"
         cy="65"
         r="24"
         fill="#fffeaf"
         stroke="#FFD700"
         stroke-width="3"
         id="circle1" />
      <text
         x="306"
         y="65"
         text-anchor="middle"
         dominant-baseline="middle"
         font-size="22"
         fill="black"
         id="text1">1</text>
    </g>
    <g
       id="2">
      <circle
         cx="786"
         cy="32"
         r="24"
         fill="#fffeaf"
         stroke="#FFD700"
         stroke-width="3"
         id="circle2" />
      <text
         x="786"
         y="32"
         text-anchor="middle"
         dominant-baseline="middle"
         font-size="22"
         fill="black"
         id="text2">2</text>
    </g>
    <g
       id="3">
      <circle
         cx="1089"
         cy="40"
         r="24"
         fill="#fffeaf"
         stroke="#FFD700"
         stroke-width="3"
         id="circle3" />
         <path d="
            M 1065 40
            A 24 24 0 0 0 1113 40
            L 1089 40
            " fill="#1ea1a1"/>
      <text
         x="1089"
         y="40"
         text-anchor="middle"
         dominant-baseline="middle"
         font-size="22"
         fill="black"
         id="text3">3</text>
    </g>
    <g
       id="4">
      <circle
         cx="1275"
         cy="24"
         r="24"
         fill="#fffeaf"
         stroke="#FFD700"
         stroke-width="3"
         id="circle4" />
      <text
         x="1275"
         y="24"
         text-anchor="middle"
         dominant-baseline="middle"
         font-size="22"
         fill="black"
         id="text4">4</text>
    </g>
    <g
       id="5">
      <circle
         cx="2021"
         cy="49"
         r="24"
         fill="#fffeaf"
         stroke="#FFD700"
         stroke-width="3"
         id="circle5" />
      <text
         x="2021"
         y="49"
         text-anchor="middle"
         dominant-baseline="middle"
         font-size="22"
         fill="black"
         id="text5">5</text>
    </g>
    <g
       id="6">
      <circle
         cx="2252"
         cy="47"
         r="24"
         fill="#fffeaf"
         stroke="#FFD700"
         stroke-width="3"
         id="circle6" />
      <text
         x="2252"
         y="47"
         text-anchor="middle"
         dominant-baseline="middle"
         font-size="22"
         fill="black"
         id="text6">6</text>
    </g>
    <g
       id="7">
      <circle
         cx="2486"
         cy="59"
         r="24"
         fill="#fffeaf"
         stroke="#FFD700"
         stroke-width="3"
         id="circle7" />
      <text
         x="2486"
         y="59"
         text-anchor="middle"
         dominant-baseline="middle"
         font-size="22"
         fill="black"
         id="text7">7</text>
    </g>
    <g
       id="8">
      <circle
         cx="215"
         cy="173"
         r="24"
         fill="#fffeaf"
         stroke="#FFD700"
         stroke-width="3"
         id="circle8" />
      <text
         x="215"
         y="173"
         text-anchor="middle"
         dominant-baseline="middle"
         font-size="22"
         fill="black"
         id="text8">8</text>
    </g>
    <g
       id="9">
      <circle
         cx="403"
         cy="186"
         r="24"
         fill="#fffeaf"
         stroke="#FFD700"
         stroke-width="3"
         id="circle9" />
      <text
         x="403"
         y="186"
         text-anchor="middle"
         dominant-baseline="middle"
         font-size="22"
         fill="black"
         id="text9">9</text>
    </g>
    <g
       id="10">
      <circle
         cx="941"
         cy="173"
         r="24"
         fill="#fffeaf"
         stroke="#FFD700"
         stroke-width="3"
         id="circle10" />
      <text
         x="941"
         y="173"
         text-anchor="middle"
         dominant-baseline="middle"
         font-size="22"
         fill="black"
         id="text10">10</text>
    </g>
    <g
       id="11">
      <circle
         cx="1081"
         cy="199"
         r="24"
         fill="#fffeaf"
         stroke="#FFD700"
         stroke-width="3"
         id="circle11" />
      <text
         x="1081"
         y="199"
         text-anchor="middle"
         dominant-baseline="middle"
         font-size="22"
         fill="black"
         id="text11">11</text>
    </g>
    <g
       id="12">
      <circle
         cx="1194"
         cy="173"
         r="24"
         fill="#fffeaf"
         stroke="#FFD700"
         stroke-width="3"
         id="circle12" />
      <text
         x="1194"
         y="173"
         text-anchor="middle"
         dominant-baseline="middle"
         font-size="22"
         fill="black"
         id="text12">12</text>
    </g>
    <g
       id="13">
      <circle
         cx="1412"
         cy="162"
         r="24"
         fill="#fffeaf"
         stroke="#FFD700"
         stroke-width="3"
         id="circle13" />
      <path d="
         M 1388 162
         A 24 24 0 0 1 1436 162
         L 1412 162
         " fill="red"/>
      <path d="
         M 1388 162
         A 24 24 0 0 0 1436 162
         L 1412 162
         " fill="#1ea1a1"/>
      <text
         x="1412"
         y="162"
         text-anchor="middle"
         dominant-baseline="middle"
         font-size="22"
         fill="black"
         id="text13">13</text>
    </g>
    <g
       id="14">
      <circle
         cx="1626"
         cy="125"
         r="24"
         fill="#fffeaf"
         stroke="#FFD700"
         stroke-width="3"
         id="circle14" />
         <path d="
            M 1602 125
            A 24 24 0 0 0 1650 125
            L 1626 125
            " fill="#1ea1a1"/>
      <text
         x="1626"
         y="125"
         text-anchor="middle"
         dominant-baseline="middle"
         font-size="22"
         fill="black"
         id="text14">14</text>
    </g>
    <g
       id="15">
      <circle
         cx="1856"
         cy="102"
         r="24"
         fill="#fffeaf"
         stroke="#FFD700"
         stroke-width="3"
         id="circle15" />
         <path d="
            M 1832 102
            A 24 24 0 0 0 1880 102
            L 1856 102
            " fill="#1ea1a1"/>
      <text
         x="1856"
         y="102"
         text-anchor="middle"
         dominant-baseline="middle"
         font-size="22"
         fill="black"
         id="text15">15</text>
    </g>
    <g
       id="16">
      <circle
         cx="2068"
         cy="180"
         r="24"
         fill="#fffeaf"
         stroke="#FFD700"
         stroke-width="3"
         id="circle16" />
      <text
         x="2068"
         y="180"
         text-anchor="middle"
         dominant-baseline="middle"
         font-size="22"
         fill="black"
         id="text16">16</text>
    </g>
    <g
       id="17">
      <circle
         cx="2468"
         cy="250"
         r="24"
         fill="#fffeaf"
         stroke="#FFD700"
         stroke-width="3"
         id="circle17" />
      <text
         x="2468"
         y="250"
         text-anchor="middle"
         dominant-baseline="middle"
         font-size="22"
         fill="black"
         id="text17">17</text>
    </g>
    <g
       id="18">
      <circle
         cx="105"
         cy="263"
         r="24"
         fill="#fffeaf"
         stroke="#FFD700"
         stroke-width="3"
         id="circle18" />
      <text
         x="105"
         y="263"
         text-anchor="middle"
         dominant-baseline="middle"
         font-size="22"
         fill="black"
         id="text18">18</text>
    </g>
    <g
       id="19">
      <circle
         cx="279"
         cy="284"
         r="24"
         fill="#fffeaf"
         stroke="#FFD700"
         stroke-width="3"
         id="circle19" />
      <path d="
         M 255 284
         A 24 24 0 0 1 303 284
         L 279 284
         " fill="red"/>
      <text
         x="279"
         y="284"
         text-anchor="middle"
         dominant-baseline="middle"
         font-size="22"
         fill="black"
         id="text19">19</text>
    </g>
    <g
       id="20">
      <circle
         cx="506"
         cy="234"
         r="24"
         fill="#fffeaf"
         stroke="#FFD700"
         stroke-width="3"
         id="circle20" />
      <text
         x="506"
         y="234"
         text-anchor="middle"
         dominant-baseline="middle"
         font-size="22"
         fill="black"
         id="text20">20</text>
    </g>
    <g
       id="21">
      <circle
         cx="729"
         cy="327"
         r="24"
         fill="#fffeaf"
         stroke="#FFD700"
         stroke-width="3"
         id="circle21" />
      <text
         x="729"
         y="327"
         text-anchor="middle"
         dominant-baseline="middle"
         font-size="22"
         fill="black"
         id="text21">21</text>
    </g>
    <g
       id="22">
      <circle
         cx="1089"
         cy="364"
         r="24"
         fill="#fffeaf"
         stroke="#FFD700"
         stroke-width="3"
         id="circle22" />
         <path d="
            M 1065 364
            A 24 24 0 0 0 1113 364
            L 1089 364
            " fill="#1ea1a1"/>
      <text
         x="1089"
         y="364"
         text-anchor="middle"
         dominant-baseline="middle"
         font-size="22"
         fill="black"
         id="text22">22</text>
    </g>
    <g
       id="23">
      <circle
         cx="1265"
         cy="267"
         r="24"
         fill="#fffeaf"
         stroke="#FFD700"
         stroke-width="3"
         id="circle23" />
         <path d="
            M 1241 267
            A 24 24 0 0 0 1289 267
            L 1265 267
            " fill="#1ea1a1"/>
      <text
         x="1265"
         y="267"
         text-anchor="middle"
         dominant-baseline="middle"
         font-size="22"
         fill="black"
         id="text23">23</text>
    </g>
    <g
       id="24">
      <circle
         cx="1541"
         cy="275"
         r="24"
         fill="#fffeaf"
         stroke="#FFD700"
         stroke-width="3"
         id="circle24" />
      <text
         x="1541"
         y="275"
         text-anchor="middle"
         dominant-baseline="middle"
         font-size="22"
         fill="black"
         id="text24">24</text>
    </g>
    <g
       id="25">
      <circle
         cx="1660"
         cy="309"
         r="24"
         fill="#fffeaf"
         stroke="#FFD700"
         stroke-width="3"
         id="circle25" />
      <text
         x="1660"
         y="309"
         text-anchor="middle"
         dominant-baseline="middle"
         font-size="22"
         fill="black"
         id="text25">25</text>
    </g>
    <g
       id="26">
      <circle
         cx="1839"
         cy="175"
         r="24"
         fill="#fffeaf"
         stroke="#FFD700"
         stroke-width="3"
         id="circle26" />
      <text
         x="1839"
         y="175"
         text-anchor="middle"
         dominant-baseline="middle"
         font-size="22"
         fill="black"
         id="text26">26</text>
    </g>
    <g
       id="27">
      <circle
         cx="1872"
         cy="283"
         r="24"
         fill="#fffeaf"
         stroke="#FFD700"
         stroke-width="3"
         id="circle27" />
      <text
         x="1872"
         y="283"
         text-anchor="middle"
         dominant-baseline="middle"
         font-size="22"
         fill="black"
         id="text27">27</text>
    </g>
    <g
       id="28">
      <circle
         cx="1954"
         cy="240"
         r="24"
         fill="#fffeaf"
         stroke="#FFD700"
         stroke-width="3"
         id="circle28" />
      <text
         x="1954"
         y="240"
         text-anchor="middle"
         dominant-baseline="middle"
         font-size="22"
         fill="black"
         id="text28">28</text>
    </g>
    <g
       id="29">
      <circle
         cx="2258"
         cy="303"
         r="24"
         fill="#fffeaf"
         stroke="#FFD700"
         stroke-width="3"
         id="circle29" />
         <path d="
      M 2234 303
      A 24 24 0 0 0 2282 303
      L 2258 303
      " fill="#1ea1a1"/>
      <text
         x="2258"
         y="303"
         text-anchor="middle"
         dominant-baseline="middle"
         font-size="22"
         fill="black"
         id="text29">29</text>
    </g>
    <g
       id="30">
      <circle
         cx="2549"
         cy="284"
         r="24"
         fill="#fffeaf"
         stroke="#FFD700"
         stroke-width="3"
         id="circle30" />
      <text
         x="2549"
         y="284"
         text-anchor="middle"
         dominant-baseline="middle"
         font-size="22"
         fill="black"
         id="text30">30</text>
    </g>
  </g>
</svg>
